<?xml version='1.0' encoding='utf-8'?>
<mlt title="Anonymous Submission" version="6.6.0" root="/home/rg/Documents/IOT Summer Internship" producer="main bin" LC_NUMERIC="en_IN">
 <profile width="1920" frame_rate_den="1" height="1080" display_aspect_num="16" display_aspect_den="9" frame_rate_num="25" colorspace="709" sample_aspect_den="1" description="HD 1080p 25 fps" progressive="1" sample_aspect_num="1"/>
 <producer id="4" title="Anonymous Submission" out="7252" in="0">
  <property name="length">7253</property>
  <property name="eof">pause</property>
  <property name="resource">/home/rg/Documents/Implementation.mp4</property>
  <property name="audio_index">1</property>
  <property name="video_index">0</property>
  <property name="mute_on_pause">1</property>
  <property name="mlt_service">avformat-novalidate</property>
  <property name="meta.media.nb_streams">2</property>
  <property name="meta.media.0.stream.type">video</property>
  <property name="meta.media.0.stream.frame_rate">25</property>
  <property name="meta.media.0.stream.sample_aspect_ratio">1</property>
  <property name="meta.media.0.codec.width">1920</property>
  <property name="meta.media.0.codec.height">1080</property>
  <property name="meta.media.0.codec.rotate">0</property>
  <property name="meta.media.0.codec.frame_rate">25</property>
  <property name="meta.media.0.codec.pix_fmt">yuv420p</property>
  <property name="meta.media.0.codec.sample_aspect_ratio">1</property>
  <property name="meta.media.0.codec.colorspace">709</property>
  <property name="meta.media.0.codec.color_trc">1</property>
  <property name="meta.media.0.codec.name">h264</property>
  <property name="meta.media.0.codec.long_name">H.264 / AVC / MPEG-4 AVC / MPEG-4 part 10</property>
  <property name="meta.media.0.codec.bit_rate">283082</property>
  <property name="meta.attr.0.stream.handler_name.markup">VideoHandler</property>
  <property name="meta.media.1.stream.type">audio</property>
  <property name="meta.media.1.codec.sample_fmt">fltp</property>
  <property name="meta.media.1.codec.sample_rate">48000</property>
  <property name="meta.media.1.codec.channels">2</property>
  <property name="meta.media.1.codec.name">aac</property>
  <property name="meta.media.1.codec.long_name">AAC (Advanced Audio Coding)</property>
  <property name="meta.media.1.codec.bit_rate">14958</property>
  <property name="meta.attr.1.stream.handler_name.markup">SoundHandler</property>
  <property name="meta.attr.major_brand.markup">isom</property>
  <property name="meta.attr.minor_version.markup">512</property>
  <property name="meta.attr.compatible_brands.markup">isomiso2avc1mp41</property>
  <property name="meta.attr.encoder.markup">Lavf57.83.100</property>
  <property name="seekable">1</property>
  <property name="meta.media.sample_aspect_num">1</property>
  <property name="meta.media.sample_aspect_den">1</property>
  <property name="aspect_ratio">1</property>
  <property name="meta.media.frame_rate_num">25</property>
  <property name="meta.media.frame_rate_den">1</property>
  <property name="meta.media.colorspace">709</property>
  <property name="meta.media.color_trc">1</property>
  <property name="meta.media.width">1920</property>
  <property name="meta.media.height">1080</property>
  <property name="meta.media.top_field_first">0</property>
  <property name="meta.media.progressive">1</property>
  <property name="kdenlive:file_size">11030826</property>
  <property name="kdenlive:file_hash">8470643a64fadb5118a8ee9ca97bef42</property>
  <property name="global_feed">1</property>
 </producer>
 <producer id="5" title="Anonymous Submission" out="3738" in="0">
  <property name="length">3739</property>
  <property name="eof">pause</property>
  <property name="resource">imp.mp3</property>
  <property name="audio_index">0</property>
  <property name="video_index">-1</property>
  <property name="mute_on_pause">1</property>
  <property name="mlt_service">avformat-novalidate</property>
  <property name="meta.media.nb_streams">1</property>
  <property name="meta.media.0.stream.type">audio</property>
  <property name="meta.media.0.codec.sample_fmt">s16p</property>
  <property name="meta.media.0.codec.sample_rate">44100</property>
  <property name="meta.media.0.codec.channels">2</property>
  <property name="meta.media.0.codec.name">mp3</property>
  <property name="meta.media.0.codec.long_name">MP3 (MPEG audio layer 3)</property>
  <property name="meta.media.0.codec.bit_rate">130969</property>
  <property name="meta.attr.0.stream.encoder.markup">LAME3.99r</property>
  <property name="meta.attr.artist.markup">Gaurav</property>
  <property name="seekable">1</property>
  <property name="kdenlive:file_size">2448779</property>
  <property name="kdenlive:file_hash">d93814bd9f34d5bca90c397c102125d9</property>
  <property name="global_feed">1</property>
 </producer>
 <playlist id="main bin">
  <property name="kdenlive:docproperties.audiotargettrack">-1</property>
  <property name="kdenlive:docproperties.decimalPoint">.</property>
  <property name="kdenlive:docproperties.dirtypreviewchunks"/>
  <property name="kdenlive:docproperties.disablepreview">0</property>
  <property name="kdenlive:docproperties.enableproxy">0</property>
  <property name="kdenlive:docproperties.generateimageproxy">0</property>
  <property name="kdenlive:docproperties.generateproxy">0</property>
  <property name="kdenlive:docproperties.kdenliveversion">17.12.3</property>
  <property name="kdenlive:docproperties.position">5918</property>
  <property name="kdenlive:docproperties.previewchunks"/>
  <property name="kdenlive:docproperties.previewextension"/>
  <property name="kdenlive:docproperties.previewparameters"/>
  <property name="kdenlive:docproperties.profile">atsc_1080p_25</property>
  <property name="kdenlive:docproperties.proxyextension">mpg</property>
  <property name="kdenlive:docproperties.proxyimageminsize">2000</property>
  <property name="kdenlive:docproperties.proxyminsize">1000</property>
  <property name="kdenlive:docproperties.proxyparams">-s 640x480 -g 5 -qscale 6 -ab 128k -vcodec mpeg2video -acodec mp2</property>
  <property name="kdenlive:docproperties.version">0.96</property>
  <property name="kdenlive:docproperties.verticalzoom">1</property>
  <property name="kdenlive:docproperties.videotargettrack">-1</property>
  <property name="kdenlive:docproperties.zonein">0</property>
  <property name="kdenlive:docproperties.zoneout">1896</property>
  <property name="kdenlive:docproperties.zoom">7</property>
  <property name="kdenlive:documentnotes"/>
  <property name="kdenlive:clipgroups">&lt;groups>
 &lt;group>
  &lt;clipitem position="1564" track="3"/>
  &lt;clipitem position="3927" track="2"/>
  &lt;clipitem position="1588" track="3"/>
  &lt;clipitem position="3501" track="2"/>
  &lt;clipitem position="911" track="2"/>
  &lt;clipitem position="1753" track="2"/>
  &lt;clipitem position="1568" track="3"/>
  &lt;clipitem position="1540" track="3"/>
  &lt;clipitem position="3860" track="2"/>
  &lt;clipitem position="1524" track="3"/>
  &lt;clipitem position="2552" track="2"/>
  &lt;clipitem position="1584" track="3"/>
  &lt;clipitem position="213" track="3"/>
  &lt;clipitem position="1253" track="2"/>
  &lt;clipitem position="1682" track="2"/>
  &lt;clipitem position="2271" track="3"/>
  &lt;clipitem position="1580" track="3"/>
  &lt;clipitem position="3885" track="2"/>
  &lt;clipitem position="2480" track="2"/>
  &lt;clipitem position="1596" track="3"/>
  &lt;clipitem position="995" track="2"/>
  &lt;clipitem position="1457" track="2"/>
  &lt;clipitem position="1753" track="3"/>
  &lt;clipitem position="1556" track="3"/>
  &lt;clipitem position="1536" track="3"/>
  &lt;clipitem position="1525" track="2"/>
  &lt;clipitem position="1544" track="3"/>
  &lt;clipitem position="213" track="2"/>
  &lt;clipitem position="4910" track="3"/>
  &lt;clipitem position="4400" track="3"/>
  &lt;clipitem position="1532" track="3"/>
  &lt;clipitem position="5476" track="3"/>
  &lt;clipitem position="1853" track="2"/>
  &lt;clipitem position="1572" track="3"/>
  &lt;clipitem position="1853" track="3"/>
  &lt;clipitem position="1552" track="3"/>
  &lt;clipitem position="1560" track="3"/>
  &lt;clipitem position="1592" track="3"/>
  &lt;clipitem position="1163" track="2"/>
  &lt;clipitem position="1503" track="2"/>
  &lt;clipitem position="1079" track="2"/>
  &lt;clipitem position="3790" track="3"/>
  &lt;clipitem position="3308" track="3"/>
  &lt;clipitem position="1514" track="2"/>
  &lt;clipitem position="4719" track="2"/>
  &lt;clipitem position="5504" track="3"/>
  &lt;clipitem position="3790" track="2"/>
  &lt;clipitem position="827" track="2"/>
  &lt;clipitem position="4004" track="2"/>
  &lt;clipitem position="0" track="2"/>
  &lt;clipitem position="5579" track="2"/>
  &lt;clipitem position="1576" track="3"/>
  &lt;clipitem position="1270" track="2"/>
  &lt;clipitem position="4400" track="2"/>
  &lt;clipitem position="4910" track="2"/>
  &lt;clipitem position="1584" track="2"/>
  &lt;clipitem position="3308" track="2"/>
  &lt;clipitem position="6098" track="2"/>
  &lt;clipitem position="1548" track="3"/>
  &lt;clipitem position="1595" track="2"/>
  &lt;clipitem position="5202" track="3"/>
  &lt;clipitem position="1528" track="3"/>
  &lt;clipitem position="2673" track="2"/>
  &lt;clipitem position="0" track="3"/>
  &lt;clipitem position="5305" track="2"/>
  &lt;clipitem position="1185" track="2"/>
  &lt;clipitem position="3968" track="2"/>
 &lt;/group>
&lt;/groups>
</property>
  <property name="kdenlive:docproperties.renderaudioquality">160</property>
  <property name="kdenlive:docproperties.rendercategory">Generic (HD for web, mobile devices...)</property>
  <property name="kdenlive:docproperties.renderendguide">-1</property>
  <property name="kdenlive:docproperties.renderexportaudio">0</property>
  <property name="kdenlive:docproperties.renderguide">0</property>
  <property name="kdenlive:docproperties.renderplay">0</property>
  <property name="kdenlive:docproperties.renderprofile">MP4 - the dominating format (H264/AAC)</property>
  <property name="kdenlive:docproperties.renderquality">23</property>
  <property name="kdenlive:docproperties.renderratio">1</property>
  <property name="kdenlive:docproperties.renderrescale">0</property>
  <property name="kdenlive:docproperties.renderrescaleheight">180</property>
  <property name="kdenlive:docproperties.renderrescalewidth">320</property>
  <property name="kdenlive:docproperties.renderscanning">0</property>
  <property name="kdenlive:docproperties.renderspeed">2</property>
  <property name="kdenlive:docproperties.renderstartguide">-1</property>
  <property name="kdenlive:docproperties.rendertcoverlay">0</property>
  <property name="kdenlive:docproperties.rendertctype">0</property>
  <property name="kdenlive:docproperties.rendertwopass">0</property>
  <property name="kdenlive:docproperties.renderurl">/home/rg/Documents/untitled.mp4</property>
  <property name="kdenlive:docproperties.renderzone">0</property>
  <property name="kdenlive:docproperties.documentid">1549253776285</property>
  <property name="xml_retain">1</property>
  <entry out="7252" producer="4" in="0"/>
  <entry out="3738" producer="5" in="0"/>
 </playlist>
 <producer id="black" out="500" in="0">
  <property name="length">15000</property>
  <property name="eof">pause</property>
  <property name="resource">black</property>
  <property name="aspect_ratio">0</property>
  <property name="mlt_service">colour</property>
  <property name="set.test_audio">0</property>
 </producer>
 <playlist id="black_track">
  <entry out="6442" producer="black" in="0"/>
 </playlist>
 <playlist id="playlist1">
  <property name="kdenlive:track_name">Audio 2</property>
  <property name="kdenlive:audio_track">1</property>
 </playlist>
 <producer id="4_playlist2_audio" title="Anonymous Submission" out="7252" in="0">
  <property name="length">7253</property>
  <property name="eof">pause</property>
  <property name="resource">/home/rg/Documents/Implementation.mp4</property>
  <property name="audio_index">1</property>
  <property name="video_index">-1</property>
  <property name="mute_on_pause">1</property>
  <property name="mlt_service">avformat-novalidate</property>
  <property name="seekable">1</property>
  <property name="aspect_ratio">1</property>
  <property name="kdenlive:file_size">11030826</property>
  <property name="kdenlive:file_hash">8470643a64fadb5118a8ee9ca97bef42</property>
  <property name="global_feed">1</property>
  <property name="xml">was here</property>
  <property name="meta.media.nb_streams">2</property>
  <property name="meta.media.0.stream.type">video</property>
  <property name="meta.media.0.stream.frame_rate">25</property>
  <property name="meta.media.0.stream.sample_aspect_ratio">1</property>
  <property name="meta.media.0.codec.width">1920</property>
  <property name="meta.media.0.codec.height">1080</property>
  <property name="meta.media.0.codec.rotate">0</property>
  <property name="meta.media.0.codec.frame_rate">25</property>
  <property name="meta.media.0.codec.pix_fmt">yuv420p</property>
  <property name="meta.media.0.codec.sample_aspect_ratio">1</property>
  <property name="meta.media.0.codec.colorspace">709</property>
  <property name="meta.media.0.codec.color_trc">1</property>
  <property name="meta.media.0.codec.name">h264</property>
  <property name="meta.media.0.codec.long_name">H.264 / AVC / MPEG-4 AVC / MPEG-4 part 10</property>
  <property name="meta.media.0.codec.bit_rate">283082</property>
  <property name="meta.attr.0.stream.handler_name.markup">VideoHandler</property>
  <property name="meta.media.1.stream.type">audio</property>
  <property name="meta.media.1.codec.sample_fmt">fltp</property>
  <property name="meta.media.1.codec.sample_rate">48000</property>
  <property name="meta.media.1.codec.channels">2</property>
  <property name="meta.media.1.codec.name">aac</property>
  <property name="meta.media.1.codec.long_name">AAC (Advanced Audio Coding)</property>
  <property name="meta.media.1.codec.bit_rate">14958</property>
  <property name="meta.attr.1.stream.handler_name.markup">SoundHandler</property>
  <property name="meta.attr.major_brand.markup">isom</property>
  <property name="meta.attr.minor_version.markup">512</property>
  <property name="meta.attr.compatible_brands.markup">isomiso2avc1mp41</property>
  <property name="meta.attr.encoder.markup">Lavf57.83.100</property>
  <property name="meta.media.sample_aspect_num">1</property>
  <property name="meta.media.sample_aspect_den">1</property>
 </producer>
 <producer id="5_playlist2" title="Anonymous Submission" out="3738" in="0">
  <property name="length">3739</property>
  <property name="eof">pause</property>
  <property name="resource">imp.mp3</property>
  <property name="audio_index">0</property>
  <property name="video_index">-1</property>
  <property name="mute_on_pause">1</property>
  <property name="mlt_service">avformat-novalidate</property>
  <property name="seekable">1</property>
  <property name="kdenlive:file_size">2448779</property>
  <property name="kdenlive:file_hash">d93814bd9f34d5bca90c397c102125d9</property>
  <property name="global_feed">1</property>
  <property name="xml">was here</property>
  <property name="meta.media.nb_streams">1</property>
  <property name="meta.media.0.stream.type">audio</property>
  <property name="meta.media.0.codec.sample_fmt">s16p</property>
  <property name="meta.media.0.codec.sample_rate">44100</property>
  <property name="meta.media.0.codec.channels">2</property>
  <property name="meta.media.0.codec.name">mp3</property>
  <property name="meta.media.0.codec.long_name">MP3 (MPEG audio layer 3)</property>
  <property name="meta.media.0.codec.bit_rate">130969</property>
  <property name="meta.attr.0.stream.encoder.markup">LAME3.99r</property>
  <property name="meta.attr.artist.markup">Gaurav</property>
 </producer>
 <playlist id="playlist2">
  <property name="kdenlive:track_name">Audio 1</property>
  <property name="kdenlive:audio_track">1</property>
  <entry out="212" producer="4_playlist2_audio" in="0"/>
  <entry out="613" producer="5_playlist2" in="0"/>
  <entry out="910" producer="5_playlist2" in="827"/>
  <entry out="910" producer="5_playlist2" in="827"/>
  <entry out="910" producer="5_playlist2" in="827"/>
  <entry out="910" producer="5_playlist2" in="827"/>
  <entry out="848" producer="5_playlist2" in="827"/>
  <entry out="681" producer="5_playlist2" in="614"/>
  <entry out="865" producer="5_playlist2" in="849"/>
  <entry out="1355" producer="5_playlist2" in="1169"/>
  <entry out="727" producer="5_playlist2" in="682"/>
  <entry out="815" producer="5_playlist2" in="805"/>
  <entry out="745" producer="5_playlist2" in="735"/>
  <entry out="804" producer="5_playlist2" in="746"/>
  <entry out="815" producer="5_playlist2" in="805"/>
  <entry out="1068" producer="5_playlist2" in="982"/>
  <entry out="981" producer="5_playlist2" in="911"/>
  <entry out="1168" producer="5_playlist2" in="1069"/>
  <entry out="910" producer="5_playlist2" in="866"/>
  <blank length="582"/>
  <entry out="1870" producer="5_playlist2" in="1799"/>
  <entry out="1994" producer="5_playlist2" in="1874"/>
  <entry out="2411" producer="5_playlist2" in="2349"/>
  <blank length="572"/>
  <entry out="2288" producer="5_playlist2" in="2177"/>
  <blank length="81"/>
  <entry out="2717" producer="5_playlist2" in="2622"/>
  <blank length="193"/>
  <entry out="2546" producer="5_playlist2" in="2477"/>
  <entry out="2571" producer="5_playlist2" in="2547"/>
  <entry out="2621" producer="5_playlist2" in="2580"/>
  <entry out="2035" producer="5_playlist2" in="1995"/>
  <entry out="2073" producer="5_playlist2" in="2038"/>
  <entry out="2176" producer="5_playlist2" in="2078"/>
  <blank length="297"/>
  <entry out="1683" producer="5_playlist2" in="1365"/>
  <entry out="1798" producer="5_playlist2" in="1721"/>
  <blank length="113"/>
  <entry out="3009" producer="5_playlist2" in="2718"/>
  <blank length="103"/>
  <entry out="3283" producer="5_playlist2" in="3010"/>
  <entry out="3394" producer="5_playlist2" in="3312"/>
  <blank length="436"/>
  <entry out="3738" producer="5_playlist2" in="3395"/>
 </playlist>
 <producer id="4_video" title="Anonymous Submission" out="7252" in="0">
  <property name="length">7253</property>
  <property name="eof">pause</property>
  <property name="resource">/home/rg/Documents/Implementation.mp4</property>
  <property name="audio_index">-1</property>
  <property name="video_index">0</property>
  <property name="mute_on_pause">1</property>
  <property name="mlt_service">avformat-novalidate</property>
  <property name="seekable">1</property>
  <property name="aspect_ratio">1</property>
  <property name="kdenlive:file_size">11030826</property>
  <property name="kdenlive:file_hash">8470643a64fadb5118a8ee9ca97bef42</property>
  <property name="global_feed">1</property>
  <property name="xml">was here</property>
  <property name="meta.media.nb_streams">2</property>
  <property name="meta.media.0.stream.type">video</property>
  <property name="meta.media.0.stream.frame_rate">25</property>
  <property name="meta.media.0.stream.sample_aspect_ratio">1</property>
  <property name="meta.media.0.codec.width">1920</property>
  <property name="meta.media.0.codec.height">1080</property>
  <property name="meta.media.0.codec.rotate">0</property>
  <property name="meta.media.0.codec.frame_rate">25</property>
  <property name="meta.media.0.codec.pix_fmt">yuv420p</property>
  <property name="meta.media.0.codec.sample_aspect_ratio">1</property>
  <property name="meta.media.0.codec.colorspace">709</property>
  <property name="meta.media.0.codec.color_trc">1</property>
  <property name="meta.media.0.codec.name">h264</property>
  <property name="meta.media.0.codec.long_name">H.264 / AVC / MPEG-4 AVC / MPEG-4 part 10</property>
  <property name="meta.media.0.codec.bit_rate">283082</property>
  <property name="meta.attr.0.stream.handler_name.markup">VideoHandler</property>
  <property name="meta.media.1.stream.type">audio</property>
  <property name="meta.media.1.codec.sample_fmt">fltp</property>
  <property name="meta.media.1.codec.sample_rate">48000</property>
  <property name="meta.media.1.codec.channels">2</property>
  <property name="meta.media.1.codec.name">aac</property>
  <property name="meta.media.1.codec.long_name">AAC (Advanced Audio Coding)</property>
  <property name="meta.media.1.codec.bit_rate">14958</property>
  <property name="meta.attr.1.stream.handler_name.markup">SoundHandler</property>
  <property name="meta.attr.major_brand.markup">isom</property>
  <property name="meta.attr.minor_version.markup">512</property>
  <property name="meta.attr.compatible_brands.markup">isomiso2avc1mp41</property>
  <property name="meta.attr.encoder.markup">Lavf57.83.100</property>
  <property name="meta.media.sample_aspect_num">1</property>
  <property name="meta.media.sample_aspect_den">1</property>
  <property name="meta.media.frame_rate_num">25</property>
  <property name="meta.media.frame_rate_den">1</property>
  <property name="meta.media.colorspace">709</property>
  <property name="meta.media.color_trc">1</property>
  <property name="meta.media.width">1920</property>
  <property name="meta.media.height">1080</property>
  <property name="meta.media.top_field_first">0</property>
  <property name="meta.media.progressive">1</property>
 </producer>
 <playlist id="playlist3">
  <property name="kdenlive:track_name">Video 1</property>
  <entry out="212" producer="4_video" in="0"/>
  <entry out="1523" producer="4_video" in="213"/>
  <entry out="1527" producer="4_video" in="1524"/>
  <entry out="1527" producer="4_video" in="1524"/>
  <entry out="1527" producer="4_video" in="1524"/>
  <entry out="1527" producer="4_video" in="1524"/>
  <entry out="1527" producer="4_video" in="1524"/>
  <entry out="1527" producer="4_video" in="1524"/>
  <entry out="1527" producer="4_video" in="1524"/>
  <entry out="1527" producer="4_video" in="1524"/>
  <entry out="1527" producer="4_video" in="1524"/>
  <entry out="1527" producer="4_video" in="1524"/>
  <entry out="1527" producer="4_video" in="1524"/>
  <entry out="1527" producer="4_video" in="1524"/>
  <entry out="1527" producer="4_video" in="1524"/>
  <entry out="1527" producer="4_video" in="1524"/>
  <entry out="1527" producer="4_video" in="1524"/>
  <entry out="1527" producer="4_video" in="1524"/>
  <entry out="1527" producer="4_video" in="1524"/>
  <entry out="1527" producer="4_video" in="1524"/>
  <entry out="1792" producer="4_video" in="1637"/>
  <blank length="1"/>
  <entry out="1893" producer="4_video" in="1794"/>
  <entry out="2311" producer="4_video" in="1894"/>
  <entry out="3557" producer="4_video" in="2521"/>
  <entry out="4351" producer="4_video" in="3870"/>
  <entry out="5195" producer="4_video" in="4586"/>
  <entry out="5720" producer="4_video" in="5211"/>
  <entry out="6012" producer="4_video" in="5721"/>
  <entry out="6286" producer="4_video" in="6013"/>
  <entry out="6314" producer="4_video" in="6287"/>
  <entry out="7252" producer="4_video" in="6315"/>
 </playlist>
 <playlist id="playlist4">
  <property name="kdenlive:track_name">Video 2</property>
 </playlist>
 <playlist id="playlist5">
  <property name="kdenlive:track_name">Video 3</property>
 </playlist>
 <tractor id="maintractor" title="Anonymous Submission" global_feed="1" out="6442" in="0">
  <track producer="black_track"/>
  <track producer="playlist1" hide="video"/>
  <track producer="playlist2" hide="video"/>
  <track producer="playlist3" hide="audio"/>
  <track producer="playlist4"/>
  <track producer="playlist5"/>
  <transition id="transition0">
   <property name="a_track">0</property>
   <property name="b_track">1</property>
   <property name="mlt_service">mix</property>
   <property name="always_active">1</property>
   <property name="sum">1</property>
   <property name="internal_added">237</property>
  </transition>
  <transition id="transition1">
   <property name="a_track">0</property>
   <property name="b_track">2</property>
   <property name="mlt_service">mix</property>
   <property name="always_active">1</property>
   <property name="sum">1</property>
   <property name="internal_added">237</property>
  </transition>
  <transition id="transition2">
   <property name="a_track">0</property>
   <property name="b_track">3</property>
   <property name="mlt_service">mix</property>
   <property name="always_active">1</property>
   <property name="sum">1</property>
   <property name="internal_added">237</property>
  </transition>
  <transition id="transition3">
   <property name="a_track">0</property>
   <property name="b_track">3</property>
   <property name="compositing">0</property>
   <property name="distort">0</property>
   <property name="rotate_center">0</property>
   <property name="mlt_service">qtblend</property>
   <property name="internal_added">237</property>
  </transition>
  <transition id="transition4">
   <property name="a_track">0</property>
   <property name="b_track">4</property>
   <property name="mlt_service">mix</property>
   <property name="always_active">1</property>
   <property name="sum">1</property>
   <property name="internal_added">237</property>
  </transition>
  <transition id="transition5">
   <property name="a_track">0</property>
   <property name="b_track">4</property>
   <property name="compositing">0</property>
   <property name="distort">0</property>
   <property name="rotate_center">0</property>
   <property name="mlt_service">qtblend</property>
   <property name="internal_added">237</property>
  </transition>
  <transition id="transition6">
   <property name="a_track">0</property>
   <property name="b_track">5</property>
   <property name="mlt_service">mix</property>
   <property name="always_active">1</property>
   <property name="sum">1</property>
   <property name="internal_added">237</property>
  </transition>
  <transition id="transition7">
   <property name="a_track">0</property>
   <property name="b_track">5</property>
   <property name="compositing">0</property>
   <property name="distort">0</property>
   <property name="rotate_center">0</property>
   <property name="mlt_service">qtblend</property>
   <property name="internal_added">237</property>
  </transition>
 </tractor>
</mlt>
